<?xml version="1.0" standalone="no"?>
<!DOCTYPE svg PUBLIC "-//W3C//DTD SVG 20010904//EN"
 "http://www.w3.org/TR/2001/REC-SVG-20010904/DTD/svg10.dtd">
<svg version="1.0" xmlns="http://www.w3.org/2000/svg"
 width="2048.000000pt" height="1646.000000pt" viewBox="0 0 2048.000000 1646.000000"
 preserveAspectRatio="xMidYMid meet">

<g transform="translate(0.000000,1646.000000) scale(0.100000,-0.100000)"
fill="#000000" stroke="none">
<path d="M2 11188 c1 -2900 3 -5246 5 -5213 1 33 7 130 13 215 77 1098 470
2148 1138 3040 465 620 1100 1183 1762 1562 943 540 2053 805 3141 749 1309
-67 2584 -593 3563 -1471 140 -126 377 -365 491 -495 98 -112 235 -282 235
-292 0 -4 -578 -586 -1284 -1292 l-1284 -1284 -27 54 c-339 672 -965 1126
-1695 1230 -122 17 -486 18 -605 1 -447 -64 -879 -266 -1200 -562 -376 -347
-612 -785 -702 -1300 -28 -162 -25 -540 5 -710 87 -484 305 -897 648 -1230
384 -372 882 -596 1399 -631 72 -4 1135 -8 2363 -9 l2232 0 0 -1775 0 -1775
5140 0 5140 0 0 8230 0 8230 -10240 0 -10240 0 2 -5272z"/>
<path d="M1 2803 l-1 -2803 2853 2 c1568 1 2778 4 2687 8 -810 34 -1567 223
-2290 573 -137 66 -374 193 -450 241 -19 13 -91 58 -160 101 -236 149 -457
311 -645 475 -1025 890 -1706 2118 -1920 3460 -28 180 -52 406 -64 605 -5 79
-9 -1089 -10 -2662z"/>
</g>
</svg>
